<svg width="160" height="40" viewBox="0 0 160 40" fill="none" xmlns="http://www.w3.org/2000/svg">
<path opacity="0.2" d="M85.9609 10.6421H74.0391C72.1362 10.6421 70.588 12.1903 70.588 14.0931V26.015C70.588 27.9179 72.1362 29.4665 74.0391 29.4665H85.9609C87.8638 29.4665 89.4124 27.9183 89.4124 26.015V14.0931C89.4124 12.1903 87.8642 10.6421 85.9609 10.6421ZM80 26.2512C76.5832 26.2512 73.8033 23.4713 73.8033 20.0541C73.8033 16.6373 76.5832 13.8574 80 13.8574C83.4172 13.8574 86.1971 16.6373 86.1971 20.0541C86.1971 23.4708 83.4167 26.2512 80 26.2512ZM86.3963 15.1386C85.5875 15.1386 84.9297 14.4809 84.9297 13.6725C84.9297 12.8641 85.5875 12.2063 86.3963 12.2063C87.2047 12.2063 87.8625 12.8641 87.8625 13.6725C87.8625 14.4809 87.2047 15.1386 86.3963 15.1386Z" fill="white"/>
<path opacity="0.2" d="M80 16.4758C78.0276 16.4758 76.4215 18.081 76.4215 20.0534C76.4215 22.0267 78.0276 23.6324 80 23.6324C81.9733 23.6324 83.5781 22.0267 83.5781 20.0534C83.5781 18.0815 81.9728 16.4758 80 16.4758Z" fill="white"/>
<path opacity="0.2" d="M80 0C68.9547 0 60 8.95475 60 20C60 31.0453 68.9547 40 80 40C91.0453 40 100 31.0453 100 20C100 8.95475 91.0453 0 80 0ZM92.0306 26.0148C92.0306 29.3621 89.3081 32.0845 85.9609 32.0845H74.0391C70.6923 32.0845 67.9694 29.3621 67.9694 26.0148V14.093C67.9694 10.7462 70.6923 8.02335 74.0391 8.02335H85.9609C89.3081 8.02335 92.0306 10.7462 92.0306 14.093V26.0148Z" fill="white"/>
<g clip-path="url(#clip0_1_218)">
<path opacity="0.2" d="M20 40C31.0457 40 40 31.0457 40 20C40 8.95431 31.0457 0 20 0C8.95431 0 0 8.95431 0 20C0 31.0457 8.95431 40 20 40Z" fill="white"/>
<path d="M25.028 20.783H21.4592V33.8573H16.0523V20.783H13.4807V16.1882H16.0523V13.2148C16.0523 11.0886 17.0623 7.75903 21.5073 7.75903L25.5125 7.77579V12.2358H22.6065C22.1298 12.2358 21.4596 12.474 21.4596 13.4883V16.1925H25.5004L25.028 20.783Z" fill="#2A2F37"/>
</g>
<g clip-path="url(#clip1_1_218)">
<path opacity="0.2" d="M140 40C151.046 40 160 31.0457 160 20C160 8.95431 151.046 0 140 0C128.954 0 120 8.95431 120 20C120 31.0457 128.954 40 140 40Z" fill="white"/>
<path fill-rule="evenodd" clip-rule="evenodd" d="M139.245 28.7719H140.814C140.814 28.7719 141.288 28.7198 141.531 28.4588C141.753 28.2193 141.746 27.7693 141.746 27.7693C141.746 27.7693 141.716 25.663 142.693 25.3529C143.657 25.0473 144.894 27.3886 146.206 28.2888C147.198 28.9701 147.951 28.8207 147.951 28.8207L151.459 28.7719C151.459 28.7719 153.293 28.6589 152.423 27.2164C152.352 27.0984 151.917 26.1493 149.816 24.1992C147.617 22.1581 147.911 22.4882 150.56 18.9576C152.173 16.8075 152.818 15.4947 152.617 14.9325C152.425 14.397 151.238 14.5386 151.238 14.5386L147.289 14.5632C147.289 14.5632 146.997 14.5232 146.78 14.653C146.567 14.7803 146.431 15.0769 146.431 15.0769C146.431 15.0769 145.806 16.7408 144.972 18.1558C143.214 21.1417 142.511 21.2992 142.224 21.1138C141.555 20.6817 141.722 19.378 141.722 18.4517C141.722 15.5582 142.161 14.3517 140.867 14.0394C140.438 13.9357 140.122 13.8672 139.025 13.8562C137.616 13.8416 136.423 13.8605 135.748 14.1913C135.299 14.4113 134.952 14.9015 135.163 14.9297C135.424 14.9646 136.015 15.089 136.329 15.5158C136.733 16.0662 136.719 17.3027 136.719 17.3027C136.719 17.3027 136.951 20.7088 136.176 21.132C135.644 21.4222 134.914 20.8297 133.346 18.1209C132.543 16.7333 131.936 15.1996 131.936 15.1996C131.936 15.1996 131.819 14.9129 131.611 14.7596C131.358 14.5739 131.004 14.5147 131.004 14.5147L127.252 14.5393C127.252 14.5393 126.688 14.555 126.482 14.7999C126.298 15.0177 126.467 15.4684 126.467 15.4684C126.467 15.4684 129.405 22.3413 132.731 25.8049C135.781 28.9804 139.245 28.7719 139.245 28.7719Z" fill="#2A2F37"/>
</g>
<defs>
<clipPath id="clip0_1_218">
<rect width="40" height="40" fill="white"/>
</clipPath>
<clipPath id="clip1_1_218">
<rect width="40" height="40" fill="white" transform="translate(120)"/>
</clipPath>
</defs>
</svg>
