<svg width="93" height="40" viewBox="0 0 93 40" fill="none" xmlns="http://www.w3.org/2000/svg">
<path d="M0.000244141 0H32.3812V32.381H0.000244141V0Z" fill="#1E3DAF"/>
<path d="M6.34561 22.5998L7.83185 22.2836V10.1724L6.1875 9.85614V8.00098H10.8992V14.494C11.2576 13.967 11.6968 13.5594 12.2168 13.2713C12.7368 12.9762 13.313 12.8286 13.9454 12.8286C15.14 12.8286 16.0747 13.2256 16.7493 14.0197C17.4309 14.8067 17.7717 16.0259 17.7717 17.6773V22.2836L19.2474 22.5998V24.4444H13.3657V22.5998L14.6938 22.2836V17.6562C14.6938 16.7708 14.5357 16.1454 14.2195 15.78C13.9103 15.4076 13.4465 15.2213 12.8281 15.2213C12.3995 15.2213 12.0235 15.2986 11.7003 15.4532C11.3841 15.6078 11.117 15.8257 10.8992 16.1068V22.2836L12.2273 22.5998V24.4444H6.34561V22.5998Z" fill="white"/>
<path d="M20.1434 22.5998L21.6296 22.2836V15.2108L19.9852 14.8946V13.0394H24.7075V22.2836L26.1832 22.5998V24.4444H20.1434V22.5998ZM24.7075 10.3094H21.6296V8.00098H24.7075V10.3094Z" fill="white"/>
<path d="M44.8706 9.41459C46.6766 9.41459 48.0855 9.76595 49.0974 10.4687C50.1093 11.1714 50.6153 12.2219 50.6153 13.6203C50.6153 14.3301 50.4255 14.966 50.0461 15.5282C49.6736 16.0833 49.129 16.5014 48.4123 16.7825C49.3328 16.9793 50.0215 17.4009 50.4782 18.0474C50.942 18.6939 51.1739 19.4423 51.1739 20.2926C51.1739 21.7612 50.689 22.875 49.7193 23.634C48.7496 24.3859 47.3758 24.7618 45.5979 24.7618H38.0508V22.9172L39.6846 22.601V11.586L38.0508 11.2697V9.41459H39.6846H44.8706ZM42.7625 17.9736V22.4007H45.5979C46.413 22.4007 47.0349 22.225 47.4636 21.8737C47.8923 21.5153 48.1066 20.9883 48.1066 20.2926C48.1066 19.5407 47.9239 18.968 47.5585 18.5744C47.1931 18.1739 46.6168 17.9736 45.8298 17.9736H42.7625ZM42.7625 15.8444H44.976C45.7982 15.8444 46.4306 15.6758 46.8733 15.3384C47.316 15.0011 47.5374 14.5092 47.5374 13.8628C47.5374 13.153 47.3125 12.6295 46.8628 12.2922C46.4201 11.9549 45.756 11.7862 44.8706 11.7862H42.7625V15.8444Z" fill="white"/>
<path d="M52.6285 22.9172L54.1042 22.601V15.5282L52.4704 15.212V13.3568H56.9713L57.1083 15.0222C57.3754 14.432 57.7197 13.9717 58.1413 13.6414C58.5629 13.3111 59.0513 13.146 59.6065 13.146C59.7681 13.146 59.9367 13.16 60.1124 13.1882C60.2951 13.2092 60.4462 13.2373 60.5657 13.2725L60.2389 16.0763L58.974 16.0447C58.5243 16.0447 58.1518 16.1325 57.8567 16.3082C57.5616 16.4839 57.3367 16.7333 57.1821 17.0566V22.601L58.6578 22.9172V24.7618H52.6285V22.9172Z" fill="white"/>
<path d="M68.5344 24.7618C68.4501 24.5721 68.3763 24.3788 68.3131 24.1821C68.2498 23.9783 68.2006 23.7745 68.1655 23.5707C67.8001 23.9923 67.3539 24.3332 66.8268 24.5932C66.3068 24.8532 65.7095 24.9832 65.0349 24.9832C63.9176 24.9832 63.0287 24.681 62.3681 24.0767C61.7146 23.4653 61.3878 22.6361 61.3878 21.5891C61.3878 20.5209 61.8165 19.6953 62.6738 19.112C63.5311 18.5288 64.789 18.2371 66.4474 18.2371H68.0179V17.1198C68.0179 16.5717 67.8598 16.1466 67.5436 15.8444C67.2274 15.5422 66.7601 15.3912 66.1417 15.3912C65.7903 15.3912 65.4776 15.4333 65.2036 15.5176C64.9295 15.5949 64.7081 15.6898 64.5395 15.8022L64.3392 17.025H62.0203L62.0308 14.4952C62.593 14.1157 63.236 13.796 63.9598 13.536C64.6906 13.276 65.4846 13.146 66.342 13.146C67.7544 13.146 68.8998 13.4938 69.7782 14.1895C70.6636 14.8782 71.1063 15.862 71.1063 17.1409V21.8526C71.1063 22.0283 71.1063 22.1934 71.1063 22.348C71.1134 22.5026 71.1274 22.6502 71.1485 22.7907L72.0866 22.9172V24.7618H68.5344ZM65.8676 22.7064C66.3314 22.7064 66.753 22.608 67.1325 22.4112C67.512 22.2075 67.8071 21.9545 68.0179 21.6523V19.9131H66.4474C65.7938 19.9131 65.2984 20.0677 64.9611 20.3769C64.6238 20.6791 64.4552 21.0445 64.4552 21.4731C64.4552 21.8596 64.5781 22.1618 64.8241 22.3796C65.0771 22.5975 65.4249 22.7064 65.8676 22.7064Z" fill="white"/>
<path d="M73.0458 22.9172L74.5321 22.601V15.5282L72.8877 15.212V13.3568H77.6099V22.601L79.0856 22.9172V24.7618H73.0458V22.9172ZM77.6099 10.6268H74.5321V8.31836H77.6099V10.6268Z" fill="white"/>
<path d="M79.9289 22.9172L81.4046 22.601V15.5282L79.7708 15.212V13.3568H84.2716L84.4087 14.9906C84.7881 14.4074 85.2554 13.9541 85.8106 13.6309C86.3657 13.3076 86.9876 13.146 87.6763 13.146C88.8287 13.146 89.7282 13.5079 90.3747 14.2317C91.0212 14.9555 91.3444 16.0904 91.3444 17.6363V22.601L92.8201 22.9172V24.7618H86.9384V22.9172L88.256 22.601V17.6469C88.256 16.8809 88.1014 16.3398 87.7922 16.0236C87.483 15.7003 87.0157 15.5387 86.3903 15.5387C85.9827 15.5387 85.6173 15.623 85.2941 15.7917C84.9708 15.9533 84.7003 16.1852 84.4825 16.4874V22.601L85.7262 22.9172V24.7618H79.9289V22.9172Z" fill="white"/>
<path d="M-2.93255e-05 40L-2.86594e-05 32.381L7.61902 32.381L-2.93255e-05 40Z" fill="#1E3DAF"/>
</svg>
