<svg width="98" height="43" viewBox="0 0 98 43" fill="none" xmlns="http://www.w3.org/2000/svg">
<path d="M0 0.769531H34.1868V34.9563H0V0.769531Z" fill="#1E3DAF"/>
<path d="M6.69549 24.6291L8.26461 24.2952V11.5085L6.52856 11.1747V9.21606H11.503V16.0712C11.8814 15.5148 12.3451 15.0845 12.8941 14.7803C13.4431 14.4687 14.0514 14.3129 14.7192 14.3129C15.9804 14.3129 16.9671 14.7321 17.6793 15.5704C18.399 16.4014 18.7588 17.6886 18.7588 19.432V24.2952L20.3168 24.6291V26.5765H14.1071V24.6291L15.5093 24.2952V19.4098C15.5093 18.475 15.3424 17.8147 15.0085 17.4289C14.6821 17.0357 14.1924 16.8391 13.5395 16.8391C13.087 16.8391 12.6901 16.9207 12.3488 17.0839C12.0149 17.2471 11.733 17.4771 11.503 17.7739V24.2952L12.9052 24.6291V26.5765H6.69549V24.6291Z" fill="white"/>
<path d="M21.2627 24.6291L22.8318 24.2952V16.828L21.0958 16.4941V14.5355H26.0814V24.2952L27.6394 24.6291V26.5765H21.2627V24.6291ZM26.0814 11.6532H22.8318V9.21606H26.0814V11.6532Z" fill="white"/>
<path d="M47.3764 10.7086C49.283 10.7086 50.7706 11.0796 51.8389 11.8215C52.9072 12.5634 53.4414 13.6725 53.4414 15.1489C53.4414 15.8982 53.2411 16.5697 52.8405 17.1632C52.4473 17.7493 51.8723 18.1907 51.1155 18.4875C52.0874 18.6952 52.8145 19.1403 53.2967 19.8229C53.7864 20.5054 54.0312 21.2956 54.0312 22.1933C54.0312 23.7438 53.5193 24.9197 52.4955 25.721C51.4717 26.5148 50.0212 26.9118 48.1442 26.9118H40.1762V24.9643L41.9011 24.6304V13.0011L40.1762 12.6673V10.7086H41.9011H47.3764ZM45.1507 19.745V24.419H48.1442C49.0048 24.419 49.6614 24.2335 50.114 23.8625C50.5665 23.4842 50.7928 22.9277 50.7928 22.1933C50.7928 21.3994 50.5999 20.7948 50.2141 20.3793C49.8283 19.9564 49.22 19.745 48.3891 19.745H45.1507ZM45.1507 17.497H47.4876C48.3557 17.497 49.0234 17.319 49.4908 16.9629C49.9582 16.6067 50.1919 16.0874 50.1919 15.4049C50.1919 14.6555 49.9545 14.1028 49.4797 13.7467C49.0123 13.3906 48.3112 13.2126 47.3764 13.2126H45.1507V17.497Z" fill="#342B2B"/>
<path d="M55.567 24.9643L57.1249 24.6304V17.1632L55.4 16.8293V14.8707H60.1519L60.2966 16.629C60.5785 16.0058 60.942 15.5199 61.3872 15.1712C61.8323 14.8225 62.3479 14.6481 62.934 14.6481C63.1047 14.6481 63.2827 14.663 63.4682 14.6926C63.6611 14.7149 63.8206 14.7446 63.9467 14.7817L63.6017 17.7419L62.2663 17.7085C61.7915 17.7085 61.3983 17.8012 61.0867 17.9867C60.7751 18.1722 60.5377 18.4355 60.3745 18.7768V24.6304L61.9325 24.9643V26.9118H55.567V24.9643Z" fill="#342B2B"/>
<path d="M72.3599 26.9118C72.2709 26.7114 72.193 26.5074 72.1262 26.2997C72.0594 26.0845 72.0075 25.8694 71.9704 25.6542C71.5846 26.0994 71.1135 26.4592 70.5571 26.7337C70.0081 27.0082 69.3774 27.1455 68.6652 27.1455C67.4856 27.1455 66.5471 26.8264 65.8497 26.1884C65.1597 25.5429 64.8148 24.6675 64.8148 23.5621C64.8148 22.4344 65.2673 21.5626 66.1724 20.9469C67.0776 20.3311 68.4056 20.0232 70.1564 20.0232H71.8146V18.8436C71.8146 18.2649 71.6477 17.816 71.3138 17.497C70.98 17.178 70.4866 17.0185 69.8337 17.0185C69.4628 17.0185 69.1326 17.063 68.8433 17.152C68.5539 17.2337 68.3202 17.3338 68.1422 17.4525L67.9307 18.7434H65.4825L65.4936 16.0726C66.0871 15.672 66.766 15.3344 67.5301 15.0599C68.3017 14.7854 69.14 14.6481 70.0452 14.6481C71.5364 14.6481 72.7457 15.0154 73.6731 15.7499C74.6078 16.4769 75.0752 17.5156 75.0752 18.8658V23.8403C75.0752 24.0258 75.0752 24.2001 75.0752 24.3633C75.0827 24.5265 75.0975 24.6823 75.1198 24.8307L76.1102 24.9643V26.9118H72.3599ZM69.5444 24.7417C70.034 24.7417 70.4792 24.6378 70.8798 24.4301C71.2804 24.2149 71.592 23.9479 71.8146 23.6288V21.7926H70.1564C69.4665 21.7926 68.9434 21.9559 68.5873 22.2823C68.2312 22.6013 68.0532 22.9871 68.0532 23.4397C68.0532 23.8477 68.183 24.1667 68.4426 24.3967C68.7097 24.6267 69.077 24.7417 69.5444 24.7417Z" fill="#342B2B"/>
<path d="M77.1229 24.9643L78.692 24.6304V17.1632L76.956 16.8293V14.8707H81.9415V24.6304L83.4995 24.9643V26.9118H77.1229V24.9643ZM81.9415 11.9884H78.692V9.55127H81.9415V11.9884Z" fill="#342B2B"/>
<path d="M84.3898 24.9643L85.9478 24.6304V17.1632L84.2229 16.8293V14.8707H88.9748L89.1194 16.5956C89.5201 15.9798 90.0134 15.5013 90.5995 15.16C91.1856 14.8188 91.8422 14.6481 92.5693 14.6481C93.786 14.6481 94.7356 15.0302 95.4182 15.7944C96.1007 16.5585 96.442 17.7567 96.442 19.3889V24.6304L98 24.9643V26.9118H91.7903V24.9643L93.1814 24.6304V19.4C93.1814 18.5913 93.0181 18.0201 92.6917 17.6862C92.3653 17.3449 91.8719 17.1743 91.2116 17.1743C90.7813 17.1743 90.3955 17.2633 90.0542 17.4414C89.713 17.612 89.4273 17.8569 89.1973 18.1759V24.6304L90.5105 24.9643V26.9118H84.3898V24.9643Z" fill="#342B2B"/>
<path d="M0.0017643 43.0002L0.001765 34.9563L8.04572 34.9563L0.0017643 43.0002Z" fill="#1E3DAF"/>
</svg>
