<svg width="26" height="58" viewBox="0 0 26 58" fill="none" xmlns="http://www.w3.org/2000/svg">
<path fill-rule="evenodd" clip-rule="evenodd" d="M14.2802 58L12.739 57.4723C12.739 57.4723 12.9273 49.6013 10.1073 49.0364C8.22803 46.8517 10.4088 -43.6128 17.1755 48.7348C17.1755 48.7348 14.8444 49.902 14.4309 51.8986C13.9795 53.8572 14.2802 58 14.2802 58Z" fill="white"/>
<path fill-rule="evenodd" clip-rule="evenodd" d="M14.2802 58L12.739 57.4723C12.739 57.4723 12.9273 49.6013 10.1073 49.0364C8.22803 46.8517 10.4088 -43.6128 17.1755 48.7348C17.1755 48.7348 14.8444 49.902 14.4309 51.8986C13.9795 53.8572 14.2802 58 14.2802 58Z" fill="#A6A385"/>
<path fill-rule="evenodd" clip-rule="evenodd" d="M15.1076 50.3923C15.1076 50.3923 28.6043 41.5038 25.4458 23.0113C22.401 9.56652 15.2204 5.16002 14.4309 3.46508C13.5664 2.25989 12.739 0.151123 12.739 0.151123L13.3032 37.5491C13.3032 37.587 12.1377 48.9986 15.108 50.3927" fill="white"/>
<path fill-rule="evenodd" clip-rule="evenodd" d="M15.1076 50.3923C15.1076 50.3923 28.6043 41.5038 25.4458 23.0113C22.401 9.56652 15.2204 5.16002 14.4309 3.46508C13.5664 2.25989 12.739 0.151123 12.739 0.151123L13.3032 37.5491C13.3032 37.587 12.1377 48.9986 15.108 50.3927" fill="#499D4A"/>
<path fill-rule="evenodd" clip-rule="evenodd" d="M11.9499 50.8815C11.9499 50.8815 -0.719837 42.2191 0.0322017 26.9663C0.746353 11.7131 9.69382 4.21836 11.4232 2.86258C12.5512 1.65739 12.5887 1.20519 12.6641 0C13.4536 1.69493 13.3033 25.3469 13.4157 28.1336C13.7539 38.8672 12.8144 48.8482 11.9499 50.8815Z" fill="white"/>
<path fill-rule="evenodd" clip-rule="evenodd" d="M11.9499 50.8815C11.9499 50.8815 -0.719837 42.2191 0.0322017 26.9663C0.746353 11.7131 9.69382 4.21836 11.4232 2.86258C12.5512 1.65739 12.5887 1.20519 12.6641 0C13.4536 1.69493 13.3033 25.3469 13.4157 28.1336C13.7539 38.8672 12.8144 48.8482 11.9499 50.8815Z" fill="#58AA50"/>
</svg>
