<svg width="58" height="57" viewBox="0 0 58 57" fill="none" xmlns="http://www.w3.org/2000/svg">
<path d="M53.424 43.9448C50.2683 43.8663 47.8226 44.1813 45.7713 45.0472C45.1795 45.2832 44.2327 45.2835 44.1538 46.0315C44.4694 46.3465 44.5088 46.8583 44.785 47.2912C45.2589 48.0784 46.0867 49.1414 46.8363 49.6928C47.6645 50.3225 48.4932 50.9523 49.3607 51.5035C50.8994 52.4484 52.6352 52.9994 54.1342 53.9443C55.0023 54.495 55.8696 55.2041 56.7375 55.7945C57.1715 56.109 57.4474 56.6213 58 56.8179V56.7C57.7236 56.3455 57.6447 55.8339 57.3688 55.4402C56.9747 55.0464 56.5797 54.6921 56.1852 54.2984C55.0413 52.7633 53.6213 51.4247 52.0829 50.3225C50.8207 49.4564 48.059 48.2755 47.5464 46.8187C47.5464 46.8187 47.5067 46.7796 47.4675 46.7402C48.3352 46.6615 49.3607 46.3465 50.1894 46.1103C51.5306 45.7557 52.7534 45.8347 54.1342 45.4803C54.7652 45.3228 55.3964 45.126 56.0274 44.9291V44.575C55.3177 43.8663 54.8049 42.9216 54.0553 42.2523C52.0435 40.5197 49.8342 38.8272 47.5464 37.4101C46.3234 36.6226 44.7453 36.1108 43.4436 35.4417C42.9707 35.2053 42.1814 35.0874 41.9055 34.6937C41.1951 33.8277 40.8006 32.6862 40.2879 31.6625C39.1443 29.4971 38.0394 27.0959 37.0531 24.8128C36.3434 23.2773 35.9095 21.7418 35.0415 20.3249C30.9784 13.6325 26.5603 9.57765 19.7755 5.60136C18.3158 4.77479 16.5801 4.42044 14.7261 3.98758C13.7403 3.94799 12.7537 3.86947 11.7677 3.82987C11.1364 3.55427 10.5052 2.80644 9.95289 2.4521C7.70481 1.03473 1.90562 -2.03557 0.248872 2.01924C-0.816328 4.57793 1.82694 7.09725 2.73388 8.39673C3.40502 9.30205 4.2725 10.3255 4.74593 11.3491C5.02209 12.018 5.10077 12.7271 5.37693 13.4356C6.00839 15.1673 6.59971 17.0967 7.42842 18.7109C7.86239 19.5375 8.33559 20.4034 8.88792 21.1515C9.20353 21.5843 9.75563 21.7814 9.87421 22.4899C9.32211 23.2773 9.28243 24.4585 8.96659 25.4425C7.54655 29.891 8.09911 35.4024 10.1107 38.6697C10.7417 39.6536 12.2409 41.8195 14.2527 40.9924C16.028 40.284 15.6335 38.04 16.1459 36.0717C16.2647 35.5988 16.1858 35.2842 16.4223 34.9693V35.0482C16.9746 36.1502 17.5267 37.2134 18.0396 38.3156C19.2626 40.2444 21.3926 42.2523 23.1677 43.5909C24.1147 44.2992 24.8641 45.5197 26.0476 45.9528V45.8344H25.9685C25.7318 45.4801 25.3767 45.3228 25.0614 45.047C24.3514 44.3388 23.5622 43.4726 23.0101 42.6852C21.3536 40.4804 19.8936 38.0398 18.5919 35.5202C17.9609 34.3002 17.4084 32.9616 16.8957 31.7413C16.6588 31.2684 16.6588 30.5601 16.2645 30.3241C15.6727 31.1901 14.805 31.9381 14.371 33.0009C13.6219 34.6937 13.5428 36.7801 13.2666 38.9451C13.1088 38.9849 13.1875 38.9451 13.1086 39.0243C11.8466 38.7089 11.4126 37.4101 10.939 36.3077C9.7554 33.5128 9.55814 29.0249 10.5841 25.7969C10.8603 24.9701 12.0438 22.372 11.5704 21.5846C11.3337 20.8365 10.5444 20.4034 10.1107 19.8131C9.59805 19.065 9.0455 18.1206 8.69066 17.2935C7.74381 15.089 7.27039 12.6482 6.24487 10.4436C5.77145 9.41993 4.94341 8.35736 4.2725 7.41244C3.52315 6.34964 2.69466 5.60136 2.10288 4.3417C1.90585 3.90884 1.62946 3.20015 1.94507 2.7277C2.02398 2.41273 2.18156 2.29484 2.4974 2.2161C3.01027 1.78278 4.46999 2.33398 4.98241 2.57021C6.44213 3.16033 7.66491 3.71198 8.88792 4.53856C9.44001 4.93227 10.0318 5.68033 10.7417 5.87719H11.5702C12.8326 6.15256 14.2525 5.95593 15.436 6.31004C17.527 6.97913 19.4202 7.96342 21.1166 9.02645C26.2844 12.2938 30.5442 16.9392 33.4242 22.4899C33.8977 23.395 34.0947 24.2222 34.5287 25.1667C35.3574 27.0959 36.3829 29.0642 37.2109 30.9538C38.0394 32.8038 38.8282 34.6937 40.0118 36.2292C40.6036 37.0555 42.9702 37.4888 44.0354 37.9219C44.8245 38.276 46.0475 38.5912 46.7574 39.0241C48.0985 39.8504 49.4396 40.7958 50.7021 41.7009C51.3333 42.1733 53.3055 43.1576 53.424 43.9448Z" fill="#00546B"/>
</svg>
