<svg width="53" height="58" viewBox="0 0 53 58" fill="none" xmlns="http://www.w3.org/2000/svg">
<path d="M23.9415 0.618778C25.3797 -0.204399 27.2528 -0.208117 28.6897 0.618778C35.9186 4.70347 43.1498 8.78177 50.3774 12.8689C51.7368 13.6347 52.6462 15.1476 52.6323 16.714V41.2891C52.6424 42.9204 51.6433 44.4695 50.2091 45.2179C43.0039 49.28 35.8025 53.3472 28.5986 57.4094C27.1307 58.2486 25.22 58.184 23.798 57.2759C21.6379 56.0237 19.4741 54.7777 17.3138 53.5267C16.8723 53.2635 16.3747 53.0541 16.063 52.626C16.3385 52.2546 16.8312 52.2084 17.2315 52.0462C18.1332 51.7595 18.9614 51.2992 19.7897 50.8526C19.9992 50.7093 20.2549 50.7642 20.4557 50.8925C22.3028 51.9516 24.1336 53.0415 25.987 54.0904C26.3823 54.3187 26.7827 54.0156 27.1206 53.8272C34.1911 49.8312 41.2702 45.8502 48.3394 41.8528C48.6013 41.7268 48.7461 41.4488 48.7249 41.1619C48.7298 33.0551 48.7261 24.9468 48.7273 16.84C48.7573 16.5145 48.5689 16.2152 48.2745 16.0819C41.0944 12.0383 33.918 7.98854 26.7391 3.94392C26.6147 3.85841 26.4674 3.81253 26.3164 3.81231C26.1655 3.81209 26.018 3.85754 25.8934 3.94268C18.7145 7.98854 11.5393 12.042 4.36044 16.0854C4.06711 16.2189 3.87025 16.5132 3.90516 16.84C3.9064 24.9468 3.90516 33.0551 3.90516 41.1631C3.89271 41.3031 3.92346 41.4436 3.99326 41.5655C4.06306 41.6875 4.16857 41.7852 4.29557 41.8454C6.2113 42.9318 8.1295 44.0105 10.0465 45.0931C11.1264 45.6744 12.4524 46.0198 13.6422 45.5744C14.6922 45.1978 15.4282 44.1263 15.4082 43.0115C15.4181 34.952 15.4032 26.8913 15.4156 18.833C15.3894 18.4752 15.7288 18.1796 16.0766 18.2133C16.9971 18.2071 17.9188 18.2009 18.8393 18.2158C19.2235 18.2071 19.4879 18.5924 19.4404 18.9528C19.4367 27.0633 19.4503 35.1741 19.4342 43.2846C19.4367 45.4461 18.5486 47.7981 16.5492 48.8557C14.0861 50.1317 11.0417 49.8611 8.60832 48.6376C6.50173 47.5862 4.4914 46.3453 2.4222 45.2189C0.984273 44.4746 -0.00994409 42.9194 0.000177794 41.2893V16.714C-0.0149017 15.1152 0.930565 13.5748 2.33234 12.8202C9.53623 8.75471 16.7389 4.68612 23.9415 0.618778Z" fill="#8CC84B"/>
</svg>
