<svg width="162" height="200" viewBox="0 0 162 200" fill="none" xmlns="http://www.w3.org/2000/svg">
<rect width="162" height="200" rx="4" fill="#EEF1F2"/>
<path d="M49 60.4707H113.187V124.658H49V60.4707Z" fill="white"/>
<path d="M61.571 105.268L64.5171 104.641V80.6336L61.2576 80.0068V76.3295H70.5973V89.2002C71.3077 88.1555 72.1783 87.3476 73.2091 86.7765C74.2398 86.1915 75.382 85.899 76.6357 85.899C79.0037 85.899 80.8563 86.686 82.1935 88.26C83.5447 89.8201 84.2203 92.2369 84.2203 95.5103V104.641L87.1455 105.268V108.924H75.4865V105.268L78.1192 104.641V95.4685C78.1192 93.7134 77.8058 92.4736 77.1789 91.7493C76.566 91.0111 75.6467 90.6419 74.4209 90.6419C73.5712 90.6419 72.826 90.7952 72.1852 91.1016C71.5584 91.4081 71.0291 91.8399 70.5973 92.397V104.641L73.2299 105.268V108.924H61.571V105.268Z" fill="#EEF1F2"/>
<path d="M88.9215 105.268L91.8675 104.641V90.621L88.608 89.9942V86.3168H97.9686V104.641L100.894 105.268V108.924H88.9215V105.268ZM97.9686 80.9053H91.8675V76.3295H97.9686V80.9053Z" fill="#EEF1F2"/>
<path d="M49.0034 139.76L49.0034 124.658L64.1062 124.658L49.0034 139.76Z" fill="white"/>
</svg>
