<svg width="10" height="6" viewBox="0 0 10 6" fill="none" xmlns="http://www.w3.org/2000/svg">
<path d="M9.84015 4.71197L5.38593 0.162831C5.28301 0.0577087 5.14577 -4.48747e-07 4.99626 -4.35708e-07C4.84975 -4.22932e-07 4.71244 0.0577087 4.60967 0.162831L0.1596 4.70765C0.0566737 4.81286 7.10981e-06 4.9531 7.12292e-06 5.10273C7.13603e-06 5.25236 0.0565924 5.39269 0.1596 5.49781L0.487323 5.83252C0.59025 5.93765 0.727648 5.99569 0.874152 5.99569C1.02066 5.99569 1.15797 5.93765 1.26098 5.83252L4.9978 2.016L8.73877 5.83692C8.8417 5.94196 8.97902 5.99992 9.1256 5.99992C9.2721 5.99992 9.40934 5.94196 9.51235 5.83692L9.84015 5.50204C10.0533 5.28424 10.0533 4.92977 9.84015 4.71197Z" fill="#342B2B"/>
</svg>
